<?xml version="1.0" encoding="UTF-8"?>
<svg xmlns="http://www.w3.org/2000/svg" width="256" height="256" viewBox="0 0 100 100"><rect width="100" height="100" rx="20" fill="#6ecee7"></rect><path fill="#fff" d="M50.74 75.64L42.90 75.64Q41.64 72.31 40.53 69.09Q39.42 65.87 38.23 62.54L38.23 62.54L15.00 62.54L10.34 75.64L2.86 75.64Q5.82 67.50 8.41 60.58Q11.00 53.66 13.48 47.45Q15.96 41.23 18.40 35.57Q20.84 29.91 23.51 24.36L23.51 24.36L30.09 24.36Q32.76 29.91 35.20 35.57Q37.64 41.23 40.12 47.45Q42.60 53.66 45.19 60.58Q47.78 67.50 50.74 75.64L50.74 75.64ZM17.07 56.62L36.16 56.62Q33.79 50.18 31.46 44.15Q29.13 38.12 26.62 32.57L26.62 32.57Q24.03 38.12 21.70 44.15Q19.36 50.18 17.07 56.62L17.07 56.62ZM89.96 45.74L89.96 24.36L97.14 24.36L97.14 75.64L89.96 75.64L89.96 51.96L64.87 51.96L64.87 75.64L57.70 75.64L57.70 24.36L64.87 24.36L64.87 45.74L89.96 45.74Z"></path></svg>
