<svg
  xmlns="http://www.w3.org/2000/svg"
  width="1200"
  height="800"
  viewBox="0 0 1200 800"
  fill="none"
  role="img"
  aria-label="Abstract gradient artwork"
>
  <defs>
    <radialGradient id="bg" cx="0" cy="0" r="1" gradientUnits="userSpaceOnUse" gradientTransform="translate(320 200) rotate(55) scale(1150 920)">
      <stop offset="0" stop-color="#0B1026" />
      <stop offset="0.55" stop-color="#070A18" />
      <stop offset="1" stop-color="#040614" />
    </radialGradient>

    <pattern id="grid" width="64" height="64" patternUnits="userSpaceOnUse">
      <path d="M 64 0 H 0 V 64" fill="none" stroke="rgba(255,255,255,0.06)" stroke-width="1" />
      <path d="M 0 32 H 64" fill="none" stroke="rgba(255,255,255,0.04)" stroke-width="1" />
      <path d="M 32 0 V 64" fill="none" stroke="rgba(255,255,255,0.04)" stroke-width="1" />
    </pattern>

    <linearGradient id="stroke" x1="0" y1="0" x2="1200" y2="0" gradientUnits="userSpaceOnUse">
      <stop offset="0" stop-color="#C084FC" />
      <stop offset="0.45" stop-color="#22D3EE" />
      <stop offset="1" stop-color="#60A5FA" />
    </linearGradient>

    <linearGradient id="wave" x1="140" y1="520" x2="1120" y2="520" gradientUnits="userSpaceOnUse">
      <stop offset="0" stop-color="#A78BFA" />
      <stop offset="0.4" stop-color="#38BDF8" />
      <stop offset="0.85" stop-color="#22D3EE" />
      <stop offset="1" stop-color="#93C5FD" />
    </linearGradient>

    <filter id="softGlow" x="-40%" y="-40%" width="180%" height="180%" color-interpolation-filters="sRGB">
      <feGaussianBlur stdDeviation="24" result="blur" />
      <feColorMatrix
        in="blur"
        type="matrix"
        values="
          1 0 0 0 0
          0 1 0 0 0
          0 0 1 0 0
          0 0 0 0.55 0"
        result="glow"
      />
      <feMerge>
        <feMergeNode in="glow" />
        <feMergeNode in="SourceGraphic" />
      </feMerge>
    </filter>

    <filter id="grain" x="-20%" y="-20%" width="140%" height="140%" color-interpolation-filters="sRGB">
      <feTurbulence type="fractalNoise" baseFrequency="0.85" numOctaves="3" stitchTiles="stitch" />
      <feColorMatrix type="matrix" values="
        0 0 0 0 0
        0 0 0 0 0
        0 0 0 0 0
        0 0 0 0.12 0
      " />
    </filter>
  </defs>

  <rect width="1200" height="800" fill="url(#bg)" />
  <rect width="1200" height="800" fill="url(#grid)" opacity="0.35" />

  <!-- Soft color fields -->
  <g filter="url(#softGlow)" opacity="0.9">
    <circle cx="260" cy="210" r="240" fill="#7C3AED" opacity="0.22" />
    <circle cx="760" cy="180" r="320" fill="#06B6D4" opacity="0.16" />
    <circle cx="860" cy="640" r="360" fill="#2563EB" opacity="0.14" />
  </g>

  <!-- Data-like lines -->
  <g stroke="url(#stroke)" stroke-linecap="round">
    <path d="M -90 96 H 520" stroke-width="2.5" opacity="0.26" />
    <circle cx="520" cy="96" r="2.6" fill="#22D3EE" opacity="0.75" />

    <path d="M -90 124 H 680" stroke-width="2.5" opacity="0.28" />
    <circle cx="680" cy="124" r="2.8" fill="#60A5FA" opacity="0.75" />

    <path d="M -90 152 H 610" stroke-width="2.5" opacity="0.24" />
    <circle cx="610" cy="152" r="2.4" fill="#C084FC" opacity="0.7" />

    <path d="M -90 180 H 740" stroke-width="2.5" opacity="0.32" />
    <circle cx="740" cy="180" r="3" fill="#22D3EE" opacity="0.8" />

    <path d="M -90 208 H 560" stroke-width="2.5" opacity="0.22" />
    <circle cx="560" cy="208" r="2.4" fill="#93C5FD" opacity="0.7" />

    <path d="M -90 236 H 820" stroke-width="2.5" opacity="0.34" />
    <circle cx="820" cy="236" r="3.1" fill="#38BDF8" opacity="0.85" />

    <path d="M -90 264 H 690" stroke-width="2.5" opacity="0.27" />
    <circle cx="690" cy="264" r="2.8" fill="#C084FC" opacity="0.75" />

    <path d="M -90 292 H 900" stroke-width="2.5" opacity="0.4" />
    <circle cx="900" cy="292" r="3.3" fill="#22D3EE" opacity="0.9" />

    <path d="M -90 320 H 640" stroke-width="2.5" opacity="0.24" />
    <circle cx="640" cy="320" r="2.6" fill="#60A5FA" opacity="0.8" />

    <path d="M -90 348 H 760" stroke-width="2.5" opacity="0.28" />
    <circle cx="760" cy="348" r="2.8" fill="#38BDF8" opacity="0.8" />

    <path d="M -90 376 H 980" stroke-width="2.5" opacity="0.44" />
    <circle cx="980" cy="376" r="3.4" fill="#93C5FD" opacity="0.9" />

    <path d="M -90 404 H 710" stroke-width="2.5" opacity="0.26" />
    <circle cx="710" cy="404" r="2.7" fill="#C084FC" opacity="0.8" />

    <path d="M -90 432 H 860" stroke-width="2.5" opacity="0.34" />
    <circle cx="860" cy="432" r="3.1" fill="#22D3EE" opacity="0.9" />

    <path d="M -90 460 H 740" stroke-width="2.5" opacity="0.28" />
    <circle cx="740" cy="460" r="2.8" fill="#60A5FA" opacity="0.85" />

    <path d="M -90 488 H 1040" stroke-width="2.5" opacity="0.5" />
    <circle cx="1040" cy="488" r="3.6" fill="#38BDF8" opacity="0.95" />

    <path d="M -90 516 H 780" stroke-width="2.5" opacity="0.3" />
    <circle cx="780" cy="516" r="3" fill="#C084FC" opacity="0.85" />

    <path d="M -90 544 H 920" stroke-width="2.5" opacity="0.4" />
    <circle cx="920" cy="544" r="3.3" fill="#22D3EE" opacity="0.95" />

    <path d="M -90 572 H 830" stroke-width="2.5" opacity="0.32" />
    <circle cx="830" cy="572" r="3.1" fill="#93C5FD" opacity="0.9" />

    <path d="M -90 600 H 1120" stroke-width="2.5" opacity="0.52" />
    <circle cx="1120" cy="600" r="3.8" fill="#38BDF8" opacity="0.95" />

    <path d="M -90 628 H 860" stroke-width="2.5" opacity="0.34" />
    <circle cx="860" cy="628" r="3.1" fill="#C084FC" opacity="0.85" />

    <path d="M -90 656 H 980" stroke-width="2.5" opacity="0.4" />
    <circle cx="980" cy="656" r="3.3" fill="#22D3EE" opacity="0.95" />

    <path d="M -90 684 H 760" stroke-width="2.5" opacity="0.26" />
    <circle cx="760" cy="684" r="2.8" fill="#60A5FA" opacity="0.85" />

    <path d="M -90 712 H 900" stroke-width="2.5" opacity="0.36" />
    <circle cx="900" cy="712" r="3.2" fill="#93C5FD" opacity="0.9" />
  </g>

  <!-- Flowing wave -->
  <g filter="url(#softGlow)" opacity="0.85">
    <path
      d="M 120 560 C 260 500 360 640 520 590 C 680 540 760 430 900 480 C 1020 522 1060 640 1140 610"
      stroke="url(#wave)"
      stroke-width="6"
      stroke-linecap="round"
      fill="none"
      opacity="0.6"
    />
    <path
      d="M 140 602 C 290 545 370 695 545 635 C 710 578 790 468 930 520 C 1040 560 1080 690 1160 650"
      stroke="url(#wave)"
      stroke-width="3"
      stroke-linecap="round"
      fill="none"
      opacity="0.38"
    />
  </g>

  <!-- Subtle grain -->
  <rect width="1200" height="800" filter="url(#grain)" opacity="0.7" />
</svg>

